<?xml version="1.0" standalone="no"?>
<!DOCTYPE svg PUBLIC "-//W3C//DTD SVG 20010904//EN"
 "http://www.w3.org/TR/2001/REC-SVG-20010904/DTD/svg10.dtd">
<svg version="1.0" xmlns="http://www.w3.org/2000/svg"
 width="1232.000000pt" height="1280.000000pt" viewBox="0 0 1232.000000 1280.000000"
 preserveAspectRatio="xMidYMid meet">
<metadata>
Created by potrace 1.15, written by Peter Selinger 2001-2017
</metadata>
<g transform="translate(0.000000,1280.000000) scale(0.100000,-0.100000)"
fill="purple" stroke="none">
<path d="M9221 12785 c-85 -24 -150 -64 -226 -140 -66 -66 -77 -84 -187 -305
-169 -341 -306 -539 -518 -750 -394 -393 -938 -597 -1785 -670 -66 -5 -266
-19 -445 -30 -587 -37 -978 -80 -1085 -121 -129 -49 -235 -174 -328 -386 -19
-43 -65 -166 -102 -273 -114 -331 -166 -420 -244 -420 -40 0 -109 38 -147 81
-12 13 -82 103 -155 200 -227 300 -367 446 -522 547 -92 59 -163 87 -287 111
-235 45 -463 47 -626 6 -97 -25 -213 -88 -294 -160 -159 -141 -376 -263 -612
-344 -123 -42 -178 -66 -191 -85 -12 -18 2 -75 35 -140 44 -88 128 -198 235
-305 l93 -94 0 -106 c0 -270 71 -489 289 -899 61 -114 128 -246 150 -293 37
-81 81 -207 81 -233 0 -8 -42 -21 -107 -35 -287 -60 -594 -193 -792 -341 -322
-243 -549 -686 -615 -1201 -36 -282 -30 -522 24 -892 16 -111 34 -260 39 -330
42 -508 -45 -993 -250 -1398 -33 -64 -145 -247 -250 -405 -207 -315 -319 -522
-365 -679 -23 -76 -27 -110 -28 -220 -1 -145 17 -226 77 -338 71 -135 232
-182 382 -113 90 41 147 88 360 296 148 144 216 204 261 228 115 60 181 37
249 -88 107 -197 211 -235 324 -122 57 57 100 122 181 272 126 232 161 295
175 314 13 17 19 14 92 -60 163 -164 288 -177 405 -44 83 95 152 261 233 558
25 92 48 172 50 179 3 8 19 6 57 -9 33 -13 78 -21 118 -22 134 -2 233 91 293
279 24 71 34 132 47 275 17 185 44 270 86 270 21 0 74 -59 153 -170 110 -156
166 -210 220 -210 27 0 76 43 92 82 7 17 40 59 74 93 77 77 138 196 201 395
25 80 62 195 81 255 93 288 187 372 340 301 l52 -25 6 47 c27 236 80 359 179
417 145 85 353 36 703 -168 361 -210 1142 -397 1658 -397 l145 0 10 26 c17 44
11 107 -15 160 -49 99 -160 202 -470 436 -159 120 -402 361 -549 543 -127 159
-257 359 -330 509 -115 235 -163 417 -173 648 l-6 146 41 21 c113 58 310 91
545 91 216 1 469 18 579 40 112 23 222 70 299 126 l50 36 -76 74 c-86 84 -121
146 -105 188 20 54 96 80 358 121 238 37 324 64 389 119 47 39 59 92 38 163
-14 49 -28 67 -120 157 -108 106 -128 142 -105 186 16 31 99 66 210 90 346 75
463 114 522 177 l27 28 -36 72 c-36 73 -50 142 -39 187 10 39 63 94 118 122
26 13 135 50 241 80 286 83 395 140 452 238 l25 42 -56 58 c-154 159 -125 258
133 458 162 125 232 206 233 269 0 9 -32 40 -70 68 -131 95 -161 185 -100 300
35 65 90 124 297 318 127 120 233 244 233 272 0 3 -33 27 -73 54 -138 89 -204
173 -214 271 -8 75 11 146 68 266 95 197 111 332 53 460 -34 77 -112 150 -192
181 -74 28 -197 35 -271 14z"/>
<path d="M10315 10216 c-234 -74 -271 -266 -90 -464 63 -70 110 -91 196 -92
54 0 77 6 127 31 68 33 88 57 132 151 35 75 47 165 30 226 -15 58 -81 124
-145 145 -58 20 -191 22 -250 3z"/>
<path d="M10673 9264 c-59 -29 -120 -93 -154 -162 -36 -72 -34 -187 4 -264 34
-70 124 -155 204 -194 225 -111 430 116 342 379 -74 222 -234 319 -396 241z"/>
<path d="M9679 9097 c-204 -70 -268 -239 -164 -436 73 -138 136 -184 254 -183
133 1 232 61 295 181 95 182 88 314 -23 398 -86 66 -237 83 -362 40z"/>
<path d="M8376 8149 c-67 -16 -159 -72 -216 -129 -30 -31 -83 -104 -118 -163
-114 -194 -213 -299 -390 -414 -211 -139 -480 -227 -932 -307 -108 -19 -219
-38 -248 -42 -89 -11 -138 -70 -129 -151 9 -81 81 -148 252 -232 166 -82 475
-178 730 -227 122 -23 349 -23 470 0 268 52 539 184 790 384 50 40 170 152
268 250 159 158 182 186 218 257 69 139 65 270 -13 426 -70 140 -211 263 -374
325 -54 21 -91 27 -169 30 -55 2 -117 -1 -139 -7z"/>
<path d="M9413 6869 c-123 -21 -222 -78 -348 -199 -233 -224 -530 -374 -955
-484 -135 -35 -406 -89 -702 -142 -151 -27 -158 -29 -158 -51 0 -125 198 -271
565 -416 157 -62 383 -138 555 -187 114 -32 116 -33 285 -27 348 11 666 112
950 302 347 232 475 403 475 633 0 250 -178 481 -427 555 -69 21 -176 28 -240
16z"/>
<path d="M9880 5404 c-83 -18 -123 -34 -220 -89 -337 -191 -727 -245 -1368
-189 -89 8 -174 14 -187 14 l-25 0 19 -37 c38 -74 122 -183 205 -266 191 -191
418 -335 981 -620 l230 -117 115 -11 c467 -45 927 152 1079 462 57 117 71 203
49 310 -9 43 -27 103 -41 131 -134 289 -522 481 -837 412z"/>
<path d="M5236 5181 c-27 -29 -52 -105 -100 -300 -25 -99 -59 -215 -76 -258
-17 -43 -105 -222 -195 -398 -218 -427 -279 -579 -311 -775 -18 -110 -18 -189
1 -286 33 -175 165 -365 305 -440 27 -15 56 -19 125 -19 86 0 94 2 163 39 207
111 385 360 468 656 134 474 51 1021 -258 1703 -41 90 -86 118 -122 78z"/>
<path d="M5956 4842 c-25 -49 -39 -151 -31 -242 3 -47 18 -173 32 -280 18
-137 26 -244 27 -360 1 -174 -7 -229 -49 -330 -22 -53 -80 -338 -130 -637 -49
-291 -50 -528 -5 -711 26 -104 97 -242 164 -323 58 -69 196 -182 252 -205 77
-32 246 -8 378 55 210 99 338 261 403 510 21 79 26 128 30 277 6 204 -4 318
-47 534 -42 210 -64 273 -203 591 -189 433 -295 634 -415 794 -96 126 -280
297 -369 344 -20 10 -24 8 -37 -17z"/>
<path d="M7777 4396 c10 -13 103 -122 207 -242 425 -493 580 -746 686 -1119
15 -55 44 -145 64 -199 20 -54 72 -222 116 -372 97 -334 139 -457 200 -597
113 -254 274 -444 470 -554 68 -38 165 -49 295 -33 245 29 436 119 581 272 81
86 134 181 163 293 122 474 -34 930 -474 1384 -209 216 -388 356 -761 594
-700 448 -1065 597 -1462 597 l-104 0 19 -24z"/>
<path d="M6912 4337 c-43 -51 -14 -153 131 -467 114 -249 146 -338 157 -444 5
-44 16 -119 24 -166 18 -107 32 -239 51 -505 30 -404 58 -586 121 -775 69
-207 185 -383 330 -499 88 -72 157 -96 243 -88 184 17 384 220 482 488 25 69
31 102 36 208 24 513 -169 1058 -540 1525 -282 354 -763 721 -962 734 -46 3
-64 0 -73 -11z"/>
<path d="M3007 1845 c-199 -50 -284 -188 -212 -342 27 -59 137 -173 193 -202
83 -42 179 -34 265 21 139 89 184 365 76 465 -66 61 -209 87 -322 58z"/>
<path d="M11587 1344 c-69 -17 -105 -34 -152 -76 -48 -42 -65 -77 -65 -138 0
-69 35 -136 112 -210 88 -86 152 -115 253 -115 67 0 88 5 125 25 105 59 166
278 110 395 -52 108 -217 159 -383 119z"/>
<path d="M2257 1230 c-188 -47 -279 -208 -205 -360 41 -83 129 -167 197 -187
120 -35 286 15 335 100 47 81 56 219 19 307 -18 45 -68 96 -118 123 -46 23
-166 32 -228 17z"/>
<path d="M3305 880 c-76 -24 -150 -76 -188 -132 -25 -38 -28 -50 -25 -104 5
-79 47 -139 144 -207 114 -79 188 -76 284 10 62 56 96 120 111 210 15 88 1
145 -47 190 -60 56 -166 69 -279 33z"/>
<path d="M10975 737 c-155 -41 -250 -156 -230 -280 19 -113 127 -262 212 -291
99 -34 227 -13 310 50 89 68 127 281 69 391 -22 43 -76 90 -129 113 -59 26
-165 34 -232 17z"/>
<path d="M11882 495 c-174 -54 -187 -223 -30 -399 82 -92 165 -117 253 -77 48
22 163 141 190 196 29 62 30 123 3 170 -28 48 -108 99 -180 114 -66 15 -183
13 -236 -4z"/>
</g>
</svg>
