<?xml version="1.0" standalone="no"?>
<!DOCTYPE svg PUBLIC "-//W3C//DTD SVG 20010904//EN"
 "http://www.w3.org/TR/2001/REC-SVG-20010904/DTD/svg10.dtd">
<svg version="1.0" xmlns="http://www.w3.org/2000/svg"
 width="1280.000000pt" height="1280.000000pt" viewBox="0 0 1280.000000 1280.000000"
 preserveAspectRatio="xMidYMid meet">
<metadata>
Created by potrace 1.15, written by Peter Selinger 2001-2017
</metadata>
<g transform="translate(0.000000,1280.000000) scale(0.100000,-0.100000)"
fill="#23d962" stroke="none">
<path d="M5740 10509 c-83 -50 -123 -113 -122 -193 1 -28 -3 -64 -8 -81 -22
-72 -17 -155 10 -155 12 0 70 99 70 122 0 9 21 41 46 72 25 31 50 71 55 88 11
39 14 141 5 157 -10 15 -16 14 -56 -10z"/>
<path d="M2640 9890 c0 -5 5 -10 11 -10 5 0 7 5 4 10 -3 6 -8 10 -11 10 -2 0
-4 -4 -4 -10z"/>
<path d="M5256 9434 c-3 -9 -6 -23 -6 -32 0 -27 -52 -124 -93 -173 -27 -34
-37 -55 -37 -82 0 -94 60 -39 90 83 12 48 28 99 35 113 7 14 16 44 20 66 7 41
2 54 -9 25z"/>
<path d="M5745 9210 c-3 -5 -1 -10 4 -10 6 0 11 5 11 10 0 6 -2 10 -4 10 -3 0
-8 -4 -11 -10z"/>
<path d="M4640 8661 c0 -5 5 -13 10 -16 6 -3 10 -2 10 4 0 5 -4 13 -10 16 -5
3 -10 2 -10 -4z"/>
<path d="M5530 8573 c-42 -16 -50 -34 -50 -116 0 -69 2 -78 15 -67 8 7 15 18
15 25 0 14 34 47 42 40 8 -9 30 70 26 95 -3 25 -21 33 -48 23z"/>
<path d="M5640 8554 c0 -8 5 -12 10 -9 6 3 10 10 10 16 0 5 -4 9 -10 9 -5 0
-10 -7 -10 -16z"/>
<path d="M4648 8500 c-7 -43 -4 -59 8 -48 3 3 4 26 2 49 l-3 44 -7 -45z"/>
<path d="M4125 8500 c3 -5 8 -10 11 -10 2 0 4 5 4 10 0 6 -5 10 -11 10 -5 0
-7 -4 -4 -10z"/>
<path d="M5583 8455 c-3 -9 -3 -18 0 -21 9 -9 27 6 27 22 0 19 -19 18 -27 -1z"/>
<path d="M5015 8420 c3 -5 10 -10 16 -10 5 0 9 5 9 10 0 6 -7 10 -16 10 -8 0
-12 -4 -9 -10z"/>
<path d="M4947 8305 c-12 -103 -18 -135 -27 -135 -17 0 -19 33 -5 60 8 16 15
35 15 42 0 7 -12 -11 -26 -41 -22 -46 -24 -57 -14 -76 12 -22 8 -149 -6 -197
-3 -10 -1 -18 4 -18 15 0 31 53 25 82 -3 13 7 74 22 135 16 69 25 131 23 164
l-3 54 -8 -70z"/>
<path d="M2570 8260 c0 -5 5 -10 10 -10 6 0 10 5 10 10 0 6 -4 10 -10 10 -5 0
-10 -4 -10 -10z"/>
<path d="M5415 8250 c-3 -5 -1 -10 4 -10 6 0 11 5 11 10 0 6 -2 10 -4 10 -3 0
-8 -4 -11 -10z"/>
<path d="M5350 8153 c-41 -67 -78 -104 -145 -143 -27 -16 -63 -42 -79 -59 -20
-21 -36 -29 -48 -26 -13 5 -21 -3 -31 -27 -8 -18 -29 -46 -46 -62 -17 -17 -31
-35 -31 -40 0 -11 -84 -179 -131 -264 -13 -23 -32 -45 -41 -48 -10 -3 -18 -11
-18 -19 0 -7 -5 -15 -10 -17 -6 -2 -11 -21 -12 -43 -1 -46 -13 -66 -34 -58 -8
3 -22 2 -31 -2 -10 -4 -41 -7 -68 -8 l-51 -2 -1 39 c-1 21 4 54 12 75 7 20 19
81 25 136 6 55 21 140 34 188 26 98 19 104 -12 12 -19 -57 -24 -86 -37 -220
-4 -33 -16 -85 -27 -115 -11 -30 -22 -68 -25 -85 -5 -27 -4 -29 11 -16 14 12
16 12 10 -2 -7 -18 -32 -30 -45 -21 -6 3 -16 0 -24 -6 -8 -6 -19 -9 -25 -5 -6
4 -17 -1 -24 -11 -7 -9 -15 -13 -18 -8 -5 9 -42 122 -52 159 -8 30 2 -53 13
-103 7 -38 6 -44 -13 -57 -25 -18 -61 -19 -105 -4 -37 13 -47 8 -36 -18 5 -10
8 -21 7 -24 0 -3 6 -6 14 -6 8 0 14 6 14 14 0 23 20 14 21 -9 1 -13 3 -33 4
-45 2 -15 -2 -20 -12 -16 -10 4 -11 8 -3 13 8 5 6 11 -5 20 -13 11 -15 9 -15
-12 0 -18 8 -27 35 -37 40 -14 46 -38 16 -65 -15 -13 -20 -14 -25 -4 -3 7 -3
3 0 -9 3 -14 1 -23 -6 -23 -7 0 -9 -8 -4 -22 6 -20 5 -21 -9 -10 -9 8 -17 29
-19 49 -3 31 -8 37 -41 48 -38 13 -38 13 -44 -16 -3 -16 -9 -29 -14 -29 -5 0
0 -20 11 -45 12 -28 15 -47 9 -51 -6 -3 -8 -13 -5 -21 3 -8 -1 -30 -9 -50 -12
-28 -18 -34 -27 -25 -9 9 -9 15 0 24 7 7 12 17 12 23 -1 23 -30 -31 -30 -56 0
-15 -6 -30 -12 -32 -8 -3 -6 -6 5 -6 9 -1 17 -8 17 -16 0 -8 6 -14 13 -13 12
3 14 -6 16 -77 1 -28 12 -56 35 -91 18 -29 36 -64 40 -80 9 -35 83 -107 102
-100 15 6 18 1 28 -47 6 -25 3 -29 -40 -47 l-46 -20 -56 30 c-56 30 -92 38
-92 20 0 -12 -47 -13 -54 -1 -3 4 -32 11 -63 15 -32 4 -72 9 -89 12 -40 6 -58
-15 -56 -67 4 -84 49 -126 148 -136 47 -5 58 -3 88 20 l34 26 45 -80 c63 -112
63 -119 2 -141 -27 -10 -58 -18 -67 -18 -38 0 -288 -91 -353 -129 -97 -56
-266 -141 -280 -141 -6 0 -30 -9 -52 -20 -23 -11 -56 -19 -74 -18 -60 2 -103
-13 -150 -52 -25 -22 -68 -51 -95 -66 -164 -90 -436 -263 -450 -286 -7 -12 26
9 111 68 83 58 233 148 318 190 57 29 75 34 89 25 26 -16 74 -13 116 8 20 10
50 21 67 25 31 8 236 108 231 113 -2 2 -52 -19 -112 -46 -59 -28 -110 -48
-112 -46 -3 2 -2 15 2 28 4 17 17 27 46 36 22 6 99 40 172 75 73 35 155 71
182 80 27 9 68 28 91 41 48 29 182 78 198 72 5 -1 -50 -34 -124 -71 -74 -37
-138 -72 -144 -78 -6 -6 -2 -6 12 1 28 14 77 33 82 31 2 -1 7 2 10 7 5 8 47
32 186 105 62 33 165 52 150 28 -3 -5 -20 -10 -36 -10 -42 0 -125 -57 -145
-99 -12 -25 -15 -48 -10 -87 5 -43 2 -60 -14 -89 -11 -20 -20 -41 -20 -47 0
-7 -9 -21 -20 -33 -73 -73 -155 -166 -177 -199 -14 -22 -52 -67 -84 -100 -33
-33 -59 -62 -59 -64 0 -8 103 83 185 164 47 47 85 91 85 98 0 21 89 85 128 92
19 4 47 13 61 20 14 8 30 14 35 14 6 0 21 10 34 23 14 12 23 17 19 11 -3 -6
18 -21 49 -34 29 -13 57 -32 60 -43 7 -22 -36 -81 -75 -101 -31 -16 -59 -46
-43 -46 5 0 15 7 22 15 7 8 19 15 26 15 8 0 14 4 14 8 0 5 18 18 39 30 l39 22
31 -54 c17 -30 38 -57 47 -60 12 -5 14 -13 9 -34 -6 -25 -5 -25 7 -9 13 17 15
17 27 3 8 -9 28 -16 45 -16 17 0 54 -12 81 -25 61 -30 67 -30 91 -4 15 16 26
20 54 15 25 -4 40 -1 55 13 21 19 57 30 111 34 18 2 39 8 47 15 12 10 16 10
21 0 3 -7 3 -1 0 13 -6 29 10 47 23 27 4 -7 8 -15 8 -18 1 -3 5 -32 9 -65 8
-62 36 -137 54 -149 6 -4 9 -14 6 -24 -5 -14 -4 -15 5 -2 10 13 12 13 21 0 5
-8 10 -30 10 -48 0 -52 135 -449 162 -477 5 -5 0 14 -11 43 -12 29 -21 60 -21
69 0 9 -11 39 -24 67 -33 70 -53 134 -66 203 -5 32 -17 87 -25 123 -22 93 -22
94 3 105 17 8 22 18 22 50 0 22 5 58 11 80 6 22 11 49 11 60 0 11 5 50 10 87
l11 67 31 -16 c17 -9 66 -40 110 -70 82 -56 81 -56 124 -15 7 6 22 12 33 12
16 0 19 -4 14 -22 l-7 -23 17 23 c13 18 26 22 69 22 45 0 56 -4 81 -30 15 -16
41 -32 56 -35 16 -4 31 -11 34 -16 14 -21 31 -8 27 21 -4 28 -3 29 21 17 15
-7 31 -22 36 -34 6 -13 19 -23 30 -23 10 0 25 -7 32 -17 16 -19 71 -43 96 -43
24 1 66 68 59 94 -9 36 -60 59 -115 51 -47 -6 -98 6 -163 41 -15 8 -33 14 -40
13 -46 -6 -78 30 -78 86 0 27 -14 34 -24 10 -6 -17 -42 -20 -51 -5 -4 6 -8 29
-10 51 -1 23 -8 46 -14 52 -16 16 -14 37 10 82 32 60 35 61 67 16 22 -31 31
-37 36 -26 4 13 10 14 26 5 26 -14 27 7 4 53 -19 37 -18 36 30 -21 39 -47 50
-44 14 4 l-22 29 32 -29 c18 -17 32 -27 32 -23 0 17 -52 87 -64 87 -19 0 -28
27 -11 34 8 3 29 -8 47 -24 17 -16 34 -27 37 -24 3 3 -9 18 -26 33 -40 33 -41
44 -5 79 15 15 32 36 37 47 15 28 53 31 86 6 15 -12 30 -21 33 -21 3 0 36 -20
73 -44 51 -33 76 -57 98 -96 29 -50 74 -83 102 -73 7 3 17 20 23 39 12 35 27
43 48 22 8 -8 12 -8 12 -1 0 6 -7 14 -16 17 -22 8 -11 19 22 22 17 2 44 -10
76 -32 28 -19 55 -34 62 -34 6 0 42 -18 79 -40 37 -21 65 -35 62 -31 -2 5 -34
26 -70 47 -35 22 -65 43 -65 47 0 5 -7 25 -16 43 -13 27 -14 40 -6 59 9 20 9
23 -3 18 -9 -3 -15 1 -15 11 0 42 164 -25 253 -105 34 -30 64 -49 80 -49 45 0
98 -29 108 -59 12 -33 55 -68 91 -72 34 -5 78 26 78 54 0 50 -56 78 -140 71
-37 -3 -46 0 -70 26 -16 17 -55 42 -87 57 -32 14 -60 29 -63 32 -3 3 -23 20
-45 36 -63 47 -150 129 -147 138 1 4 -3 7 -10 6 -7 -1 -21 1 -30 4 -10 4 -25
9 -33 12 -12 4 -14 9 -5 24 15 28 13 33 -10 26 -23 -7 -25 4 -8 52 12 32 43
45 62 26 4 -5 11 -8 14 -9 58 -5 175 -64 254 -126 52 -41 148 -88 180 -88 21
0 36 -13 72 -61 51 -68 64 -67 15 1 -17 23 -27 46 -22 51 11 11 110 -39 148
-77 19 -19 40 -57 55 -103 22 -65 29 -75 62 -91 60 -29 61 2 3 75 -17 22 -43
65 -58 97 -26 57 -71 108 -95 108 -24 0 -71 40 -117 100 -50 65 -111 100 -174
100 -20 0 -49 7 -66 16 -16 9 -43 24 -60 32 -37 18 -75 52 -75 66 0 15 -98 68
-111 61 -5 -4 -7 -11 -4 -16 8 -13 4 -12 -40 11 -22 11 -44 20 -51 20 -6 0
-19 9 -29 20 -9 10 -32 24 -49 30 -22 7 -38 22 -49 45 -17 36 -68 65 -112 65
-13 0 -33 9 -46 19 l-24 19 38 7 c21 4 37 13 37 21 0 8 4 14 9 14 5 0 8 8 7
18 -1 20 43 29 71 14 18 -11 55 1 86 27 13 11 17 24 13 44 -4 17 -1 29 7 31
87 26 228 75 216 76 -9 0 -52 -12 -95 -26 -142 -46 -143 -46 -152 -11 -9 33
-48 52 -73 36 -8 -5 -29 -9 -46 -9 -27 0 -33 4 -34 23 0 12 -3 16 -6 9 -11
-28 -54 -34 -97 -13 -23 11 -68 32 -101 46 -137 60 -147 70 -101 95 32 16 48
58 51 124 2 57 9 76 29 76 7 0 21 11 31 24 10 13 35 30 57 37 21 7 36 14 34
17 -10 9 -82 -22 -108 -45 -36 -35 -46 -24 -36 39 12 72 11 87 -3 104 -9 11
-15 12 -25 3 -16 -13 -19 -65 -4 -74 6 -3 10 -22 10 -42 0 -28 -8 -43 -42 -76
-35 -34 -49 -41 -80 -41 -51 2 -113 31 -99 48 7 9 7 16 -2 25 -9 10 -1 11 43
7 l55 -6 -60 14 c-33 8 -98 22 -145 32 -87 18 -104 28 -182 107 -25 26 -27 34
-23 90 3 57 28 134 73 224 13 26 14 35 4 45 -9 9 -12 7 -12 -13 0 -13 -6 -33
-13 -44 -8 -11 -26 -51 -42 -90 -16 -38 -35 -77 -43 -87 -11 -14 -11 -20 1
-45 18 -35 7 -55 -47 -82 -35 -18 -35 -18 -33 2 2 16 -4 21 -26 21 -15 1 -31
7 -36 14 -6 10 -10 8 -14 -10 -4 -14 -18 -41 -32 -61 -13 -21 -28 -49 -31 -62
-3 -14 -10 -25 -16 -25 -5 0 -6 9 -3 20 4 12 2 20 -5 20 -7 0 -9 16 -6 48 l6
47 -15 -45 c-8 -25 -23 -52 -32 -60 -10 -8 -19 -26 -21 -40 -3 -29 -41 -72
-58 -66 -7 3 -15 0 -17 -7 -2 -7 -7 -9 -11 -6 -8 8 4 40 13 35 4 -3 11 11 17
30 6 19 7 34 3 34 -5 0 -9 -6 -9 -12 -1 -14 -45 -68 -56 -68 -3 0 -2 6 4 13
14 17 102 190 102 200 0 5 16 47 36 93 20 47 34 87 32 90 -3 3 -25 -44 -48
-103 -24 -59 -48 -115 -55 -123 -6 -8 -22 -40 -35 -70 -14 -30 -28 -57 -31
-60 -3 -3 -13 -18 -22 -35 -15 -28 -16 -28 -17 -7 0 13 -4 20 -10 17 -16 -10
-12 42 5 75 19 37 29 39 21 5 -4 -14 -2 -25 3 -25 5 0 12 12 15 28 4 15 10 36
13 47 6 20 5 20 -16 1 -27 -25 -27 -21 9 52 17 34 30 66 30 71 0 4 9 16 20 26
11 10 20 23 20 30 0 7 9 20 20 30 11 10 20 28 20 39 0 26 56 90 70 81 5 -3 10
-2 10 4 0 5 5 22 11 38 8 22 12 25 20 13 8 -12 9 -10 4 6 -4 15 3 31 22 53 15
17 31 31 35 31 11 0 131 72 156 94 13 12 33 41 44 66 11 25 29 58 40 73 11 16
18 30 16 32 -2 3 -19 -21 -38 -52z m238 -778 c5 -5 -19 -49 -31 -56 -14 -10
-68 8 -90 29 -17 17 -17 21 -3 34 12 13 25 14 68 6 29 -5 54 -11 56 -13z m241
-177 c-15 -37 -64 -64 -85 -47 -12 10 -10 17 12 48 15 20 39 49 53 64 l26 29
3 -32 c2 -18 -2 -46 -9 -62z m-953 66 c-9 -8 -16 -19 -16 -24 0 -4 -7 -10 -15
-14 -8 -3 -15 -1 -15 4 0 13 37 50 51 50 6 0 3 -7 -5 -16z m994 -254 c0 -5 -2
-10 -4 -10 -3 0 -8 5 -11 10 -3 6 -1 10 4 10 6 0 11 -4 11 -10z m121 -247 c13
-16 12 -17 -3 -4 -10 7 -18 15 -18 17 0 8 8 3 21 -13z m134 -120 c-4 -10 -10
-26 -12 -35 -6 -20 -19 -23 -28 -8 -3 6 -15 10 -25 10 -22 0 -34 15 -26 35 4
10 20 15 52 15 40 0 45 -2 39 -17z m34 -27 c9 -11 6 -15 -14 -18 -24 -5 -34 9
-18 25 10 10 19 8 32 -7z m-1829 -260 c0 -3 -4 -8 -10 -11 -5 -3 -10 -1 -10 4
0 6 5 11 10 11 6 0 10 -2 10 -4z m926 -140 c-9 -17 -16 -23 -21 -16 -4 6 1 20
11 31 23 25 28 19 10 -15z m1190 -74 c5 -5 30 -16 55 -26 42 -15 95 -56 73
-56 -15 0 -154 73 -154 82 0 10 13 10 26 0z m-356 -102 c13 -8 13 -10 -2 -10
-9 0 -20 5 -23 10 -8 13 5 13 25 0z m74 -29 c18 -20 19 -62 1 -67 -18 -6 -45
23 -51 55 -6 26 -4 31 13 31 11 0 28 -9 37 -19z m237 -34 c11 -19 10 -19 -20
2 -36 26 -39 31 -11 24 11 -3 26 -15 31 -26z m-741 -29 c-7 13 -9 26 -7 28 3
3 12 -9 21 -27 18 -37 20 -42 7 -35 -5 4 -12 0 -14 -6 -7 -18 -47 31 -47 57 0
17 3 16 26 -10 20 -24 23 -25 14 -7z m-1426 -24 c25 -4 46 -9 46 -13 0 -3 -16
-23 -35 -44 -42 -45 -67 -91 -60 -109 2 -7 -10 -22 -28 -33 -48 -31 -127 -68
-133 -63 -9 10 9 39 22 34 8 -3 11 0 7 9 -3 8 9 33 26 57 l31 41 -23 11 c-31
16 -33 43 -5 73 38 42 66 48 152 37z m974 -32 c2 -7 -3 -12 -12 -12 -9 0 -16
7 -16 16 0 17 22 14 28 -4z m49 -111 c44 -15 56 -16 83 -5 30 13 60 10 60 -6
0 -5 -10 -11 -22 -13 -21 -4 -20 -4 3 -6 23 -1 28 -6 32 -38 3 -28 0 -43 -14
-58 -17 -18 -23 -18 -80 -6 -70 14 -139 41 -139 55 0 4 9 6 21 3 25 -7 19 1
-13 17 -29 15 -36 46 -11 47 10 0 13 3 6 6 -19 7 -16 23 5 23 9 -1 40 -9 69
-19z m253 -11 c0 -5 -2 -10 -4 -10 -3 0 -8 5 -11 10 -3 6 -1 10 4 10 6 0 11
-4 11 -10z m47 -79 c14 -42 14 -46 -3 -58 -22 -16 -26 -16 -48 0 -16 12 -18
22 -12 61 6 40 10 47 28 44 14 -2 25 -17 35 -47z m-397 -53 c0 -24 -3 -54 -7
-67 -6 -23 -6 -23 -24 10 -23 43 -23 54 -1 78 26 29 32 25 32 -21z m540 -89
c0 -6 -4 -7 -10 -4 -5 3 -10 11 -10 16 0 6 5 7 10 4 6 -3 10 -11 10 -16z
m-550 -31 c0 -7 -5 -20 -10 -28 -8 -12 -10 -9 -10 13 0 15 5 27 10 27 6 0 10
-6 10 -12z"/>
<path d="M4130 5880 c0 -5 5 -10 10 -10 6 0 10 5 10 10 0 6 -4 10 -10 10 -5 0
-10 -4 -10 -10z"/>
<path d="M5220 5759 c0 -5 5 -7 10 -4 6 3 10 8 10 11 0 2 -4 4 -10 4 -5 0 -10
-5 -10 -11z"/>
<path d="M5346 7967 c-5 -10 -3 -30 4 -48 17 -39 19 -34 10 21 -5 33 -9 40
-14 27z"/>
<path d="M5400 7920 c0 -5 5 -10 10 -10 6 0 10 5 10 10 0 6 -4 10 -10 10 -5 0
-10 -4 -10 -10z"/>
<path d="M5233 7898 c-23 -30 -24 -41 -2 -21 12 12 20 25 17 28 -3 3 -10 0
-15 -7z"/>
<path d="M4926 7863 c-11 -11 -6 -23 9 -23 8 0 15 4 15 9 0 13 -16 22 -24 14z"/>
<path d="M5770 7840 c-8 -5 -11 -12 -8 -16 4 -3 14 1 23 10 18 17 9 21 -15 6z"/>
<path d="M3844 7762 c-8 -12 -8 -22 -1 -34 10 -14 13 -14 29 8 19 24 17 44 -5
44 -7 0 -17 -8 -23 -18z"/>
<path d="M4299 7705 c17 -33 31 -51 31 -40 0 6 -10 21 -21 35 -13 17 -17 18
-10 5z"/>
<path d="M4220 7602 c-19 -9 -47 -27 -61 -40 -24 -21 -26 -27 -18 -64 5 -22
17 -54 25 -70 13 -26 14 -31 1 -41 -13 -10 -13 -18 -2 -52 l13 -40 1 34 c1 25
5 32 16 27 12 -4 14 2 12 29 -1 23 -8 37 -19 41 -10 3 -18 9 -18 13 0 5 21 2
46 -7 57 -19 84 -6 109 49 21 46 14 81 -22 115 -30 28 -36 28 -83 6z"/>
<path d="M5042 7613 c1 -5 -4 -21 -11 -37 -6 -16 -10 -34 -8 -40 3 -6 8 1 12
16 4 15 13 29 21 32 7 3 11 12 8 21 -6 15 -25 22 -22 8z"/>
<path d="M5768 7568 c2 -10 9 -17 15 -15 19 6 18 24 -1 29 -15 4 -18 1 -14
-14z"/>
<path d="M4467 7488 c-3 -11 1 -34 9 -49 7 -15 14 -36 14 -46 0 -15 2 -16 10
-3 5 8 10 34 10 57 0 31 -5 45 -19 52 -15 9 -20 7 -24 -11z"/>
<path d="M4980 7495 c-7 -9 -11 -17 -9 -20 3 -2 10 5 17 15 14 24 10 26 -8 5z"/>
<path d="M6133 7495 c-3 -9 -19 -23 -35 -31 -16 -9 -27 -18 -24 -21 8 -9 76
40 76 55 0 17 -9 15 -17 -3z"/>
<path d="M4656 7444 c-11 -28 -6 -38 9 -18 8 10 15 22 15 27 0 13 -18 7 -24
-9z"/>
<path d="M4300 7406 c0 -2 9 -6 20 -9 11 -3 18 -1 14 4 -5 9 -34 13 -34 5z"/>
<path d="M7152 7280 c-23 -5 -46 -11 -51 -14 -12 -8 79 -106 98 -106 9 0 27 8
41 18 20 13 25 25 23 55 0 21 -3 40 -5 43 -10 10 -66 12 -106 4z"/>
<path d="M7285 7210 c-3 -5 1 -10 10 -10 9 0 13 5 10 10 -3 6 -8 10 -10 10 -2
0 -7 -4 -10 -10z"/>
<path d="M7505 7196 c-29 -13 -75 -65 -75 -84 0 -5 17 -12 37 -15 30 -5 52 0
102 23 56 27 68 29 97 20 37 -13 54 -7 54 17 0 12 -8 14 -45 9 -37 -6 -52 -3
-90 18 -25 15 -47 26 -48 26 -1 -1 -15 -7 -32 -14z"/>
<path d="M6900 7174 c0 -8 5 -12 10 -9 6 4 8 11 5 16 -9 14 -15 11 -15 -7z"/>
<path d="M4000 7119 c0 -5 5 -7 10 -4 6 3 10 8 10 11 0 2 -4 4 -10 4 -5 0 -10
-5 -10 -11z"/>
<path d="M3955 7050 c3 -5 11 -10 16 -10 6 0 7 5 4 10 -3 6 -11 10 -16 10 -6
0 -7 -4 -4 -10z"/>
<path d="M6483 6231 c-1 -11 6 -26 15 -33 11 -9 14 -10 8 0 -4 6 -3 12 3 12 5
0 8 8 7 18 -4 24 -31 27 -33 3z"/>
<path d="M6590 6198 c0 -6 -8 -7 -17 -4 -16 6 -16 6 -1 -11 9 -10 17 -22 18
-28 6 -27 30 -45 71 -50 l44 -6 -29 24 c-16 14 -35 23 -43 20 -8 -3 -13 -1
-11 5 2 6 -6 18 -17 27 -20 16 -20 16 3 12 27 -6 30 9 2 16 -11 3 -20 1 -20
-5z"/>
<path d="M5810 6140 c0 -5 5 -10 11 -10 5 0 7 5 4 10 -3 6 -8 10 -11 10 -2 0
-4 -4 -4 -10z"/>
<path d="M7870 6140 c0 -5 5 -10 10 -10 6 0 10 5 10 10 0 6 -4 10 -10 10 -5 0
-10 -4 -10 -10z"/>
<path d="M5861 6073 c7 -12 15 -20 18 -17 3 2 -3 12 -13 22 -17 16 -18 16 -5
-5z"/>
<path d="M6476 6006 c21 -19 41 -32 43 -30 6 6 -57 64 -71 64 -6 0 6 -15 28
-34z"/>
<path d="M5897 6019 c7 -7 15 -10 18 -7 3 3 -2 9 -12 12 -14 6 -15 5 -6 -5z"/>
<path d="M6838 6025 c-10 -10 5 -64 19 -69 35 -14 43 16 14 52 -20 23 -24 25
-33 17z"/>
<path d="M5980 5981 c0 -6 5 -13 10 -16 6 -3 10 1 10 9 0 9 -4 16 -10 16 -5 0
-10 -4 -10 -9z"/>
<path d="M6815 5970 c3 -5 8 -10 11 -10 2 0 4 5 4 10 0 6 -5 10 -11 10 -5 0
-7 -4 -4 -10z"/>
<path d="M5810 5953 c0 -5 10 -18 23 -29 l22 -19 -20 25 c-11 14 -21 27 -22
29 -2 2 -3 0 -3 -6z"/>
<path d="M3318 5893 c7 -3 16 -2 19 1 4 3 -2 6 -13 5 -11 0 -14 -3 -6 -6z"/>
<path d="M3258 5883 c6 -2 18 -2 25 0 6 3 1 5 -13 5 -14 0 -19 -2 -12 -5z"/>
<path d="M3034 5851 c-13 -13 0 -22 24 -16 40 10 48 22 12 21 -17 -1 -33 -3
-36 -5z"/>
<path d="M6760 5832 c0 -5 28 -26 63 -47 34 -21 78 -53 98 -70 20 -18 40 -34
45 -36 6 -2 20 -19 33 -36 24 -36 67 -45 77 -18 9 22 -14 45 -46 45 -15 0 -33
7 -40 15 -7 8 -18 15 -24 15 -6 0 -42 25 -81 56 -75 60 -125 90 -125 76z"/>
<path d="M6040 5810 c0 -6 7 -10 15 -10 8 0 15 2 15 4 0 2 -7 6 -15 10 -8 3
-15 1 -15 -4z"/>
<path d="M8210 5790 c0 -5 12 -10 28 -10 21 0 24 2 12 10 -20 13 -40 13 -40 0z"/>
<path d="M8275 5791 c-7 -13 32 -34 46 -26 7 5 6 11 -2 21 -13 16 -35 18 -44
5z"/>
<path d="M3620 5780 c-9 -6 -10 -10 -3 -10 6 0 15 5 18 10 8 12 4 12 -15 0z"/>
<path d="M6572 5778 c7 -19 38 -22 38 -4 0 10 -9 16 -21 16 -12 0 -19 -5 -17
-12z"/>
<path d="M7010 5780 c0 -5 5 -10 11 -10 5 0 7 5 4 10 -3 6 -8 10 -11 10 -2 0
-4 -4 -4 -10z"/>
<path d="M5732 5753 c2 -10 9 -18 16 -18 7 0 17 -7 22 -15 5 -8 10 -11 10 -7
0 13 -32 57 -42 57 -5 0 -8 -8 -6 -17z"/>
<path d="M4187 5676 c-4 -10 -1 -13 8 -9 8 3 12 9 9 14 -7 12 -11 11 -17 -5z"/>
<path d="M2845 5672 c-21 -22 10 -29 38 -8 16 12 15 14 -7 14 -14 0 -28 -3
-31 -6z"/>
<path d="M4147 5654 c-8 -8 1 -24 14 -24 5 0 9 7 9 15 0 15 -12 20 -23 9z"/>
<path d="M5815 5625 c7 -31 12 -41 19 -34 2 2 -3 18 -11 34 l-14 30 6 -30z"/>
<path d="M4145 5590 c3 -5 8 -10 11 -10 2 0 4 5 4 10 0 6 -5 10 -11 10 -5 0
-7 -4 -4 -10z"/>
<path d="M4184 5579 c-19 -22 -19 -22 4 -10 12 6 22 16 22 21 0 15 -5 12 -26
-11z"/>
<path d="M7505 5590 c3 -5 8 -10 11 -10 2 0 4 5 4 10 0 6 -5 10 -11 10 -5 0
-7 -4 -4 -10z"/>
<path d="M7452 5574 c4 -21 22 -23 26 -1 2 10 -3 17 -13 17 -10 0 -15 -6 -13
-16z"/>
<path d="M7605 5566 c17 -14 38 -26 47 -26 25 0 12 27 -17 34 -13 3 -31 9 -42
12 -11 3 -7 -4 12 -20z"/>
<path d="M3745 5500 c-3 -5 -1 -10 4 -10 6 0 11 5 11 10 0 6 -2 10 -4 10 -3 0
-8 -4 -11 -10z"/>
<path d="M5362 5498 c-20 -20 -14 -36 13 -30 14 2 28 9 31 14 4 6 -2 7 -16 3
-19 -6 -22 -4 -17 9 8 19 5 20 -11 4z"/>
<path d="M5430 5490 c-9 -6 -10 -10 -3 -10 6 0 15 5 18 10 8 12 4 12 -15 0z"/>
<path d="M3620 5469 c0 -5 5 -7 10 -4 6 3 10 8 10 11 0 2 -4 4 -10 4 -5 0 -10
-5 -10 -11z"/>
<path d="M4971 5424 c0 -11 3 -14 6 -6 3 7 2 16 -1 19 -3 4 -6 -2 -5 -13z"/>
<path d="M5686 5398 c-23 -46 -21 -94 6 -112 31 -22 38 -20 75 14 36 34 35 59
-5 103 -34 36 -57 34 -76 -5z"/>
<path d="M4980 5386 c0 -8 4 -17 9 -20 5 -4 7 3 4 14 -6 23 -13 26 -13 6z"/>
<path d="M4396 5358 c-3 -13 -5 -34 -5 -48 1 -15 5 -7 10 19 9 47 6 68 -5 29z"/>
<path d="M7915 5370 c3 -5 11 -10 16 -10 6 0 7 5 4 10 -3 6 -11 10 -16 10 -6
0 -7 -4 -4 -10z"/>
<path d="M3908 5348 c-37 -21 -49 -38 -28 -38 6 0 10 4 10 9 0 5 14 14 30 21
30 12 49 30 33 30 -4 0 -25 -10 -45 -22z"/>
<path d="M6365 5360 c3 -5 8 -10 11 -10 2 0 4 5 4 10 0 6 -5 10 -11 10 -5 0
-7 -4 -4 -10z"/>
<path d="M4037 5303 c-4 -3 -7 -11 -7 -17 0 -6 5 -5 12 2 6 6 9 14 7 17 -3 3
-9 2 -12 -2z"/>
<path d="M6036 5293 c-6 -14 -5 -15 5 -6 7 7 10 15 7 18 -3 3 -9 -2 -12 -12z"/>
<path d="M5125 5260 c3 -5 8 -10 11 -10 2 0 4 5 4 10 0 6 -5 10 -11 10 -5 0
-7 -4 -4 -10z"/>
<path d="M6085 5245 c4 -11 13 -39 20 -62 7 -24 25 -63 39 -87 32 -54 33 -70
6 -61 -11 4 -19 3 -18 -2 2 -4 -3 -33 -11 -64 -15 -63 -6 -95 47 -159 l28 -33
55 13 c75 19 82 26 75 74 -7 43 -36 95 -121 220 -42 62 -52 83 -43 93 6 7 9
15 7 16 -2 1 -13 9 -24 17 -17 12 -18 12 -7 0 6 -8 12 -18 12 -23 0 -14 -31
14 -53 48 -10 17 -16 21 -12 10z"/>
<path d="M6116 5247 c3 -10 9 -15 12 -12 3 3 0 11 -7 18 -10 9 -11 8 -5 -6z"/>
<path d="M4747 5226 c-4 -10 -5 -21 -2 -24 9 -9 17 6 13 25 -3 17 -4 17 -11
-1z"/>
<path d="M6350 5220 c0 -5 4 -10 9 -10 6 0 13 5 16 10 3 6 -1 10 -9 10 -9 0
-16 -4 -16 -10z"/>
<path d="M5052 5200 c0 -14 2 -19 5 -12 2 6 2 18 0 25 -3 6 -5 1 -5 -13z"/>
<path d="M6640 5202 c0 -9 63 -86 146 -177 86 -94 143 -173 214 -295 54 -94
133 -189 333 -402 74 -79 35 -25 -51 70 -169 186 -224 256 -275 352 -11 19
-45 73 -76 120 -32 47 -70 108 -86 135 -15 28 -64 85 -108 128 -74 72 -97 88
-97 69z"/>
<path d="M7610 5200 c0 -5 5 -10 11 -10 5 0 7 5 4 10 -3 6 -8 10 -11 10 -2 0
-4 -4 -4 -10z"/>
<path d="M4770 5196 c0 -2 7 -6 15 -10 8 -3 15 -1 15 4 0 6 -7 10 -15 10 -8 0
-15 -2 -15 -4z"/>
<path d="M5550 5181 c0 -5 5 -13 10 -16 6 -3 10 -2 10 4 0 5 -4 13 -10 16 -5
3 -10 2 -10 -4z"/>
<path d="M3655 5169 c-10 -15 3 -25 16 -12 7 7 7 13 1 17 -6 3 -14 1 -17 -5z"/>
<path d="M5408 5164 c-8 -7 8 -74 32 -133 23 -59 60 -120 212 -350 10 -14 27
-45 38 -69 28 -60 79 -132 115 -162 94 -79 174 -159 202 -204 18 -28 60 -78
93 -111 33 -33 82 -83 109 -112 51 -53 85 -75 134 -87 26 -6 27 -5 21 21 -4
16 -13 34 -20 42 -11 13 -14 12 -20 -2 -9 -24 -27 -21 -59 11 -46 46 -55 66
-65 151 -15 131 -44 174 -225 321 -37 30 -81 75 -98 100 -17 25 -47 61 -66 80
-20 20 -61 64 -91 99 -30 35 -87 96 -125 136 -71 72 -148 186 -160 238 -7 28
-18 41 -27 31z"/>
<path d="M7913 5143 c9 -9 20 -13 24 -9 4 4 1 11 -7 16 -25 16 -35 11 -17 -7z"/>
<path d="M5160 5106 c0 -9 5 -16 10 -16 6 0 10 4 10 9 0 6 -4 13 -10 16 -5 3
-10 -1 -10 -9z"/>
<path d="M3040 5079 c0 -5 5 -7 10 -4 6 3 10 8 10 11 0 2 -4 4 -10 4 -5 0 -10
-5 -10 -11z"/>
<path d="M3943 5075 c-3 -9 -3 -18 0 -22 10 -10 37 6 37 22 0 20 -29 20 -37 0z"/>
<path d="M5057 4994 c-3 -3 -3 -13 0 -21 5 -12 7 -12 14 -1 15 23 4 40 -14 22z"/>
<path d="M4339 4898 c-6 -12 -39 -57 -72 -98 -34 -41 -54 -69 -45 -62 13 10
17 10 20 0 4 -10 8 -10 22 1 9 8 14 21 11 29 -3 8 15 43 41 79 25 35 44 67 41
70 -3 2 -11 -6 -18 -19z"/>
<path d="M2826 4831 c-18 -7 -18 -8 -2 -14 25 -10 56 -9 56 2 0 7 -26 23 -33
20 -1 0 -11 -4 -21 -8z"/>
<path d="M8223 4785 c31 -28 69 -36 48 -11 -7 8 -27 19 -44 25 l-32 11 28 -25z"/>
<path d="M2995 4740 c-33 -22 -68 -51 -78 -65 -10 -14 -25 -25 -32 -25 -8 0
-19 -9 -25 -19 -26 -49 -3 -41 66 24 33 30 78 67 102 82 38 25 54 43 35 43 -5
0 -35 -18 -68 -40z"/>
<path d="M6460 4757 c0 -7 7 -24 16 -37 23 -34 96 -110 106 -110 4 0 -10 19
-32 41 -40 41 -49 59 -30 59 5 0 16 -13 25 -30 9 -16 18 -30 21 -30 10 0 -20
47 -54 83 -38 39 -52 46 -52 24z"/>
<path d="M4991 4744 c0 -11 3 -14 6 -6 3 7 2 16 -1 19 -3 4 -6 -2 -5 -13z"/>
<path d="M5522 4569 c2 -7 10 -15 17 -17 8 -3 12 1 9 9 -2 7 -10 15 -17 17 -8
3 -12 -1 -9 -9z"/>
<path d="M4060 4549 c0 -5 5 -7 10 -4 6 3 10 8 10 11 0 2 -4 4 -10 4 -5 0 -10
-5 -10 -11z"/>
<path d="M4866 4483 c-6 -14 -5 -15 5 -6 7 7 10 15 7 18 -3 3 -9 -2 -12 -12z"/>
<path d="M4847 4441 c-4 -17 -3 -21 5 -13 5 5 8 16 6 23 -3 8 -7 3 -11 -10z"/>
<path d="M7485 4170 c3 -5 8 -10 11 -10 2 0 4 5 4 10 0 6 -5 10 -11 10 -5 0
-7 -4 -4 -10z"/>
<path d="M7060 4150 c0 -5 5 -10 11 -10 5 0 7 5 4 10 -3 6 -8 10 -11 10 -2 0
-4 -4 -4 -10z"/>
<path d="M4100 4050 c0 -5 5 -10 11 -10 5 0 7 5 4 10 -3 6 -8 10 -11 10 -2 0
-4 -4 -4 -10z"/>
<path d="M6727 4014 c-13 -13 -7 -24 14 -24 11 0 19 5 17 12 -5 14 -22 21 -31
12z"/>
<path d="M5670 3918 c11 -24 20 -51 20 -60 0 -10 5 -18 11 -18 12 0 5 29 -22
83 -26 51 -33 47 -9 -5z"/>
<path d="M7980 3919 c-28 -15 -48 -18 -99 -13 l-64 6 6 -36 c3 -20 15 -55 25
-79 11 -23 28 -60 38 -82 9 -22 45 -76 78 -120 34 -44 70 -94 80 -110 10 -17
40 -45 67 -64 27 -18 69 -52 94 -75 25 -23 45 -40 45 -38 0 3 -18 28 -39 56
-22 28 -51 75 -66 104 -18 36 -41 62 -73 85 -49 33 -142 127 -142 143 0 5 -16
34 -35 64 -19 30 -35 60 -35 67 0 20 36 46 67 50 15 2 40 13 55 23 15 11 32
20 38 20 5 0 10 5 10 10 0 13 -8 11 -50 -11z"/>
<path d="M7024 3788 c9 -13 25 -40 36 -60 11 -21 39 -50 61 -65 40 -26 42 -26
55 -8 28 39 -16 108 -78 122 -15 3 -33 12 -39 19 -6 8 -20 14 -31 14 -19 0
-20 -1 -4 -22z"/>
<path d="M4285 3710 c3 -5 13 -10 21 -10 8 0 14 5 14 10 0 6 -9 10 -21 10 -11
0 -17 -4 -14 -10z"/>
<path d="M2310 3575 c-11 -13 -10 -14 4 -9 9 3 16 10 16 15 0 13 -6 11 -20 -6z"/>
<path d="M7660 3054 c0 -8 5 -12 10 -9 6 4 8 11 5 16 -9 14 -15 11 -15 -7z"/>
<path d="M5600 2999 c0 -5 5 -7 10 -4 6 3 10 8 10 11 0 2 -4 4 -10 4 -5 0 -10
-5 -10 -11z"/>
<path d="M7237 2793 c-15 -14 -6 -23 23 -23 22 0 28 4 24 15 -6 15 -35 20 -47
8z"/>
</g>
</svg>
